<svg id="power" xmlns="http://www.w3.org/2000/svg" width="15.263" height="16.656" viewBox="0 0 15.263 16.656">
  <path id="Path_34512" data-name="Path 34512" d="M31.135,61.389h0a.707.707,0,0,0,.436.642,6.28,6.28,0,1,1-8.759,5.7h0a6.242,6.242,0,0,1,3.725-5.7.71.71,0,0,0,.436-.644h0a.694.694,0,0,0-.953-.644,7.629,7.629,0,1,0,6.07,0,.694.694,0,0,0-.955.645Z" transform="translate(-21.424 -58.719)" fill="#15186a"/>
  <path id="Path_34513" data-name="Path 34513" d="M235.48,0h0a.694.694,0,0,1,.694.694V4.855a.694.694,0,0,1-.694.694h0a.694.694,0,0,1-.694-.694V.694A.694.694,0,0,1,235.48,0Z" transform="translate(-227.849)" fill="#15186a"/>
</svg>
